PathFileType	3	(X/Y/Z)	RCH0000002 BBF 12.c3d
DataRate	CameraRate	NumFrames	NumMarkers	Units	OrigDataRate	OrigDataStartFrame	OrigNumFrames
100.0	100.0	11	23	mm	100.0	261	406
Frame#	Time	T10			RPSI			LPAT			LANK			LMED			LTOE			RPAT			RKNE			RANK			RMED			RTOE			LKNE			RHEE			RASI			MAN			LHEE			LASI			T2			LPSI			RTHI			LTHI			RTIB			LTIB			
		X1	Y1	Z1	X2	Y2	Z2	X3	Y3	Z3	X4	Y4	Z4	X5	Y5	Z5	X6	Y6	Z6	X7	Y7	Z7	X8	Y8	Z8	X9	Y9	Z9	X10	Y10	Z10	X11	Y11	Z11	X12	Y12	Z12	X13	Y13	Z13	X14	Y14	Z14	X15	Y15	Z15	X16	Y16	Z16	X17	Y17	Z17	X18	Y18	Z18	X19	Y19	Z19	X20	Y20	Z20	X21	Y21	Z21	X22	Y22	Z22	X23	Y23	Z23	

261	2.600	-631.42200	-125.76289	786.51477	-637.56994	-166.09825	679.53070	-593.91935	-25.29067	360.88117	-779.71324	56.03485	95.30319	-773.08983	-13.26718	109.57689	-735.52886	19.60932	73.29121	-397.90310	-121.91021	404.78502	-425.54992	-179.95789	357.81565	-458.22408	-221.80704	94.55962	-477.13572	-154.64537	96.50525	-418.20709	-182.52264	83.30530	-650.47049	31.69970	340.58615	-508.58746	-194.35739	121.07881	-513.09235	-185.95975	636.94042	-490.40293	-86.25465	941.54085	-807.64924	16.51155	137.02685	-557.52106	-14.27900	648.84177	-624.66045	-110.47136	977.05261	-653.05312	-98.66235	686.91143	-452.77389	-252.54423	464.04255	-635.58821	85.43903	472.52496	-432.78442	-262.90343	257.74201	-706.19922	106.81691	242.16314	
262	2.610	-620.88671	-126.90972	783.79264	-626.24371	-166.96268	677.14404	-581.63971	-24.97472	356.99571	-776.18734	55.35431	97.27693	-768.99550	-13.85881	110.93408	-733.05124	19.10892	73.44530	-389.05679	-120.05205	400.32867	-414.87022	-179.94220	354.29591	-443.99212	-226.16000	90.63041	-465.22321	-159.54261	92.24516	-405.17182	-185.74083	80.01961	-639.22433	31.12483	337.35437	-495.55856	-200.18418	116.57644	-501.26004	-185.95973	635.26279	-480.65063	-89.12701	939.82011	-802.33718	15.68476	139.82143	-547.07272	-14.66045	645.96438	-615.00766	-114.39481	974.48775	-642.24967	-99.62129	683.73968	-439.67568	-251.56548	461.69535	-625.36439	84.50766	469.50569	-418.14632	-264.32532	254.55675	-697.92050	106.10795	241.24280	
263	2.620	-610.18814	-127.82923	781.01839	-614.83837	-167.73883	675.01523	-568.30565	-24.96886	352.81428	-771.71944	54.45537	99.50012	-764.08760	-14.68734	112.42191	-729.88629	18.37256	73.69179	-380.36064	-118.53496	395.88918	-404.57393	-180.10155	350.83982	-432.32300	-230.25574	87.20970	-455.68159	-164.18694	88.74870	-394.70646	-188.74961	77.08210	-626.83988	30.24696	333.70824	-484.75109	-205.71074	112.97956	-489.39045	-186.06947	633.82330	-470.91575	-91.93426	938.14286	-795.97600	14.62992	142.83563	-536.44754	-15.14603	642.77045	-605.37399	-118.31763	971.82440	-631.34021	-100.47712	680.53072	-426.79018	-250.82820	459.37652	-614.49202	83.24702	466.10579	-404.83952	-265.68899	251.51839	-688.41143	105.10806	240.16997	
264	2.630	-599.37598	-128.48187	778.26755	-603.44058	-168.40369	673.22435	-554.02032	-25.32988	348.44933	-766.15842	53.38153	101.94308	-758.26588	-15.71391	114.03385	-725.88467	17.42388	74.04667	-371.82077	-117.58752	391.71195	-394.74675	-180.55668	347.62291	-423.13046	-234.01706	84.35655	-448.34718	-168.47667	86.07855	-386.66381	-191.51506	74.56688	-613.37986	29.05896	329.74050	-476.08056	-210.79581	110.32380	-477.58383	-186.32512	632.68873	-461.20559	-94.63602	936.54354	-788.47495	13.41288	146.02202	-525.68410	-15.75969	639.32414	-595.76390	-122.17698	969.12579	-620.38789	-101.20476	677.37680	-414.34347	-250.49693	457.19713	-602.99133	81.65489	462.40496	-392.99306	-267.06897	248.70160	-677.62474	103.83267	238.97184	
265	2.640	-588.50451	-128.84111	775.62516	-592.13435	-168.94066	671.84474	-538.92598	-26.11230	344.05033	-759.38098	52.17972	104.56458	-751.44166	-16.89623	115.75523	-720.89838	16.29472	74.52608	-363.48339	-117.39917	387.99326	-385.50056	-181.41775	344.78547	-416.21936	-237.39462	82.08548	-442.97534	-172.34155	84.23891	-380.80125	-194.01770	72.51168	-598.94849	27.55845	325.58310	-469.37734	-215.34267	108.57660	-465.93838	-186.75946	631.91660	-451.52776	-97.19239	935.06374	-779.77977	12.09925	149.31992	-514.82284	-16.52285	635.71580	-586.18192	-125.90725	966.46556	-609.45335	-101.78583	674.38133	-402.55582	-250.71330	455.25199	-590.89640	79.74278	458.51680	-382.68806	-268.55022	246.15378	-665.56668	102.30063	237.69883	
266	2.650	-577.62985	-128.89667	773.18228	-580.99634	-169.34174	670.93887	-523.19188	-27.36405	339.79653	-751.30234	50.89194	107.31534	-743.54141	-18.19631	117.56321	-714.78812	15.02063	75.14584	-355.42938	-118.09717	384.86356	-376.96010	-182.77127	342.42282	-411.30951	-240.36899	80.36801	-439.26674	-175.74661	83.17812	-376.80673	-196.25293	70.91777	-583.68262	25.74755	321.40114	-464.40690	-219.30530	107.64415	-454.54489	-187.39953	631.55194	-441.89044	-99.56592	933.75175	-769.87768	10.74165	152.65920	-503.90465	-17.45257	632.05931	-576.63292	-129.44292	963.92559	-598.59168	-102.21083	671.65395	-391.61947	-251.57732	453.61360	-578.25139	77.53586	454.58477	-373.95182	-270.21426	243.89685	-652.29989	100.53079	236.42567	
267	2.660	-566.80709	-128.65650	771.03161	-570.09205	-169.60861	670.55477	-506.99987	-29.12065	335.88551	-741.88338	49.54668	110.14188	-734.50938	-19.58842	119.42746	-707.43095	13.63525	75.92069	-347.76469	-119.73016	382.38083	-369.24735	-184.66820	340.58204	-408.06728	-242.94834	79.13989	-436.89705	-178.69098	82.79796	-374.33015	-198.22963	69.75452	-567.74037	23.63334	317.38267	-460.89551	-222.68662	107.38592	-443.48200	-188.26438	631.62472	-432.30256	-101.72357	932.66105	-758.79789	9.36764	155.96476	-492.96976	-18.55971	628.48684	-567.12224	-132.72185	961.59276	-587.85013	-102.48035	669.30434	-381.68067	-253.13348	452.32841	-565.10701	75.07200	450.77442	-366.75743	-272.12480	241.93121	-637.94103	98.53940	235.24884	
268	2.670	-556.08759	-128.14721	769.26236	-559.47320	-169.75246	670.72317	-490.52971	-31.39852	332.51870	-731.13320	48.15158	112.99014	-724.30930	-21.06565	121.31162	-698.72758	12.16423	76.86318	-340.60781	-122.26153	380.53526	-362.46614	-187.11536	339.26529	-406.14002	-245.16197	78.31308	-435.54542	-181.20136	82.96802	-373.01528	-199.96669	68.96745	-551.28896	21.22908	313.72505	-458.55701	-225.52879	107.63433	-432.81268	-189.36338	632.14833	-422.77371	-103.63866	931.84796	-746.60746	7.97102	159.16111	-482.05687	-19.84721	625.14114	-557.65572	-135.68890	959.55490	-577.26690	-102.60486	667.43526	-372.82828	-255.36436	451.41584	-551.51814	72.39988	447.26238	-361.02911	-274.31572	240.24133	-622.65297	96.33871	234.28001	
269	2.680	-545.51679	-127.41254	767.95496	-549.17647	-169.79248	671.45573	-473.94581	-34.18853	329.88594	-719.10646	46.68888	115.80857	-712.92525	-22.64397	123.17584	-688.60889	10.61956	77.98265	-334.07617	-125.57414	379.26370	-356.68927	-190.07189	338.43874	-405.18768	-247.05097	77.79028	-434.91791	-183.32165	83.54280	-372.52787	-201.48805	68.48829	-534.49335	18.55579	310.61974	-457.11707	-227.89783	108.21634	-422.58207	-190.69516	633.11920	-413.31399	-105.29247	931.36826	-733.40300	6.50831	162.17718	-471.20253	-21.30897	622.16614	-548.23958	-138.29924	957.89616	-566.87093	-102.60320	666.13564	-365.09004	-258.19313	450.87040	-537.54294	69.57659	444.22324	-356.65238	-276.78401	238.80253	-606.63248	93.93715	233.63602	
270	2.690	-535.13265	-126.51025	767.17602	-539.22342	-169.75326	672.74449	-457.38695	-37.45109	328.15085	-705.89620	45.11458	118.55058	-700.36179	-24.36276	124.98053	-677.04084	8.99537	79.28445	-328.27282	-129.48589	378.47030	-351.95001	-193.45178	338.04481	-404.90782	-248.65819	77.47911	-434.76331	-185.10121	84.37880	-372.57664	-202.81731	68.24510	-517.50668	15.64376	308.23729	-456.33156	-229.86611	108.97343	-412.81672	-192.24726	634.51758	-403.93358	-106.67553	931.27326	-719.29948	4.90159	164.95078	-460.44066	-22.92914	619.69675	-538.88018	-140.52128	956.69225	-556.68246	-102.49990	665.47418	-358.43657	-261.49428	450.66608	-523.24366	66.66461	441.81571	-353.48710	-279.48885	237.58795	-590.09463	91.34046	233.42673	
271	2.700	-524.96485	-125.50739	766.97391	-529.62160	-169.66153	674.56246	-440.95989	-41.11416	327.43911	-691.62333	43.36162	121.17658	-686.64345	-26.28163	126.69081	-664.02746	7.26599	80.76970	-323.27474	-133.77360	378.04838	-348.23870	-197.13243	338.01506	-405.05146	-250.01984	77.30372	-434.88085	-186.58437	85.34900	-372.92570	-203.97332	68.17093	-500.46343	12.53332	306.71438	-455.99781	-231.49697	109.77699	-403.52528	-193.99663	636.30939	-394.64224	-107.78836	931.60565	-704.41805	3.04733	167.43310	-449.80213	-24.68232	617.84895	-529.58375	-142.33878	956.00578	-546.71420	-102.32187	665.49425	-352.79161	-265.11025	450.76222	-508.68850	63.72887	440.16980	-351.38113	-282.35695	236.57495	-573.25580	88.55346	233.74262	
